<svg xmlns="http://www.w3.org/2000/svg" width="64" height="64" viewBox="0 0 64 64" role="img" aria-labelledby="title">
  <title id="title">DrawIO app</title>
  <defs>
    <linearGradient id="tile" x1="8" y1="8" x2="56" y2="56" gradientUnits="userSpaceOnUse">
      <stop offset="0" stop-color="#f7630c"/>
      <stop offset=".6" stop-color="#d83b01"/>
      <stop offset="1" stop-color="#8f2f00"/>
    </linearGradient>
    <linearGradient id="panel" x1="15" y1="15" x2="50" y2="49" gradientUnits="userSpaceOnUse">
      <stop offset="0" stop-color="#ffffff"/>
      <stop offset="1" stop-color="#fff2e5"/>
    </linearGradient>
    <filter id="shadow" x="-20%" y="-20%" width="140%" height="140%">
      <feDropShadow dx="0" dy="2" stdDeviation="1.5" flood-color="#33210f" flood-opacity=".22"/>
    </filter>
  </defs>
  <rect x="6" y="7" width="52" height="50" rx="12" fill="url(#tile)" filter="url(#shadow)"/>
  <path d="M14 18a5 5 0 0 1 5-5h26a5 5 0 0 1 5 5v28a5 5 0 0 1-5 5H19a5 5 0 0 1-5-5z" fill="url(#panel)" opacity=".96"/>
  <rect x="18" y="20" width="12" height="10" rx="2" fill="#ffffff" stroke="#f7630c" stroke-width="2.2"/>
  <rect x="36" y="20" width="12" height="10" rx="2" fill="#ffffff" stroke="#107c10" stroke-width="2.2"/>
  <rect x="27" y="35" width="13" height="9" rx="2" fill="#ffffff" stroke="#0078d4" stroke-width="2.2"/>
  <path d="M30 25h6M42 30v5h-3M27 39h-5v-9" fill="none" stroke="#6b4f38" stroke-linecap="round" stroke-linejoin="round" stroke-width="2.1"/>
  <rect x="18" y="46" width="28" height="3" rx="1.5" fill="#8f2f00" opacity=".18"/>
</svg>
