<svg xmlns="http://www.w3.org/2000/svg" width="64" height="64" viewBox="0 0 64 64" role="img" aria-labelledby="title">
  <title id="title">BPMN app</title>
  <defs>
    <linearGradient id="tile" x1="8" y1="8" x2="56" y2="56" gradientUnits="userSpaceOnUse">
      <stop offset="0" stop-color="#0f6cbd"/>
      <stop offset=".55" stop-color="#0078d4"/>
      <stop offset="1" stop-color="#2b88d8"/>
    </linearGradient>
    <linearGradient id="panel" x1="15" y1="15" x2="50" y2="49" gradientUnits="userSpaceOnUse">
      <stop offset="0" stop-color="#ffffff"/>
      <stop offset="1" stop-color="#eaf4ff"/>
    </linearGradient>
    <filter id="shadow" x="-20%" y="-20%" width="140%" height="140%">
      <feDropShadow dx="0" dy="2" stdDeviation="1.5" flood-color="#0f1f33" flood-opacity=".22"/>
    </filter>
  </defs>
  <rect x="6" y="7" width="52" height="50" rx="12" fill="url(#tile)" filter="url(#shadow)"/>
  <path d="M14 18a5 5 0 0 1 5-5h26a5 5 0 0 1 5 5v28a5 5 0 0 1-5 5H19a5 5 0 0 1-5-5z" fill="url(#panel)" opacity=".96"/>
  <path d="M26 24h11m-15 8h7m13 0h4M26 40h10" fill="none" stroke="#6b7a90" stroke-linecap="round" stroke-width="2"/>
  <circle cx="21" cy="24" r="5" fill="#ffffff" stroke="#0f6cbd" stroke-width="2.2"/>
  <rect x="38" y="19" width="10" height="10" rx="2.5" fill="#ffffff" stroke="#107c10" stroke-width="2.2"/>
  <path d="M29 32h8" fill="none" stroke="#6b7a90" stroke-linecap="round" stroke-width="2"/>
  <path d="M37 32l5 5-5 5-5-5z" fill="#ffffff" stroke="#c19c00" stroke-linejoin="round" stroke-width="2.2"/>
  <rect x="18" y="44" width="28" height="3" rx="1.5" fill="#0f6cbd" opacity=".18"/>
</svg>
