<svg xmlns="http://www.w3.org/2000/svg" width="64" height="64" viewBox="0 0 64 64" role="img" aria-labelledby="title">
  <title id="title">BPMN file</title>
  <defs>
    <linearGradient id="page" x1="12" y1="6" x2="54" y2="60" gradientUnits="userSpaceOnUse">
      <stop offset="0" stop-color="#ffffff"/>
      <stop offset="1" stop-color="#f3f8ff"/>
    </linearGradient>
    <linearGradient id="accent" x1="13" y1="13" x2="51" y2="51" gradientUnits="userSpaceOnUse">
      <stop offset="0" stop-color="#0078d4"/>
      <stop offset="1" stop-color="#2b88d8"/>
    </linearGradient>
    <linearGradient id="green" x1="39" y1="19" x2="52" y2="32" gradientUnits="userSpaceOnUse">
      <stop offset="0" stop-color="#13a10e"/>
      <stop offset="1" stop-color="#0b6a0b"/>
    </linearGradient>
    <filter id="shadow" x="-20%" y="-20%" width="140%" height="140%">
      <feDropShadow dx="0" dy="2" stdDeviation="1.4" flood-color="#0f1f33" flood-opacity=".18"/>
    </filter>
  </defs>
  <path d="M13 7h29l11 11v39a4 4 0 0 1-4 4H13a4 4 0 0 1-4-4V11a4 4 0 0 1 4-4z" fill="url(#page)" filter="url(#shadow)"/>
  <path d="M42 7v10a2 2 0 0 0 2 2h9" fill="#d8ebff"/>
  <path d="M13 7h29l11 11v39a4 4 0 0 1-4 4H13a4 4 0 0 1-4-4V11a4 4 0 0 1 4-4z" fill="none" stroke="#6b7a90" stroke-width="1.4"/>
  <path d="M42 7v10a2 2 0 0 0 2 2h9" fill="none" stroke="#6b7a90" stroke-linejoin="round" stroke-width="1.4"/>
  <rect x="13" y="39" width="31" height="14" rx="3" fill="url(#accent)"/>
  <text x="28.5" y="49.3" fill="#ffffff" font-family="Segoe UI, Arial, sans-serif" font-size="8.4" font-weight="700" letter-spacing=".2" text-anchor="middle">BPMN</text>
  <circle cx="21" cy="25" r="5.5" fill="#ffffff" stroke="#0078d4" stroke-width="2"/>
  <rect x="39" y="19" width="12" height="11" rx="2.5" fill="#ffffff" stroke="url(#green)" stroke-width="2"/>
  <path d="M26.5 25h12" fill="none" stroke="#51657d" stroke-linecap="round" stroke-width="2"/>
  <path d="M21 30.5v5.5h15" fill="none" stroke="#51657d" stroke-linecap="round" stroke-linejoin="round" stroke-width="2"/>
  <path d="M42 32.5l5.5 5.5-5.5 5.5-5.5-5.5z" fill="#ffffff" stroke="#c19c00" stroke-linejoin="round" stroke-width="2"/>
</svg>
