<svg xmlns="http://www.w3.org/2000/svg" width="64" height="64" viewBox="0 0 64 64" role="img" aria-labelledby="title">
  <title id="title">DrawIO file</title>
  <defs>
    <linearGradient id="page" x1="12" y1="6" x2="54" y2="60" gradientUnits="userSpaceOnUse">
      <stop offset="0" stop-color="#ffffff"/>
      <stop offset="1" stop-color="#fff5ea"/>
    </linearGradient>
    <linearGradient id="accent" x1="13" y1="39" x2="45" y2="53" gradientUnits="userSpaceOnUse">
      <stop offset="0" stop-color="#f7630c"/>
      <stop offset="1" stop-color="#ca5010"/>
    </linearGradient>
    <filter id="shadow" x="-20%" y="-20%" width="140%" height="140%">
      <feDropShadow dx="0" dy="2" stdDeviation="1.4" flood-color="#33210f" flood-opacity=".18"/>
    </filter>
  </defs>
  <path d="M13 7h29l11 11v39a4 4 0 0 1-4 4H13a4 4 0 0 1-4-4V11a4 4 0 0 1 4-4z" fill="url(#page)" filter="url(#shadow)"/>
  <path d="M42 7v10a2 2 0 0 0 2 2h9" fill="#ffe2c4"/>
  <path d="M13 7h29l11 11v39a4 4 0 0 1-4 4H13a4 4 0 0 1-4-4V11a4 4 0 0 1 4-4z" fill="none" stroke="#80624a" stroke-width="1.4"/>
  <path d="M42 7v10a2 2 0 0 0 2 2h9" fill="none" stroke="#80624a" stroke-linejoin="round" stroke-width="1.4"/>
  <rect x="13" y="39" width="32" height="14" rx="3" fill="url(#accent)"/>
  <text x="29" y="49.2" fill="#ffffff" font-family="Segoe UI, Arial, sans-serif" font-size="7.8" font-weight="700" letter-spacing="0" text-anchor="middle">DRAWIO</text>
  <rect x="18" y="18" width="12" height="10" rx="2" fill="#ffffff" stroke="#f7630c" stroke-width="2"/>
  <rect x="37" y="18" width="12" height="10" rx="2" fill="#ffffff" stroke="#107c10" stroke-width="2"/>
  <rect x="27" y="30" width="13" height="8" rx="2" fill="#ffffff" stroke="#0078d4" stroke-width="2"/>
  <path d="M30 23h7M43 28v4h-3M27 34h-5v-6" fill="none" stroke="#6b4f38" stroke-linecap="round" stroke-linejoin="round" stroke-width="2"/>
</svg>
